PathFileType	4	(X/Y/Z)	C:\Users\Biomechanik\SynologyDrive\AlexP\Athlete_03\Athlete_3_25_03_31\Squat_bar_03\marker_experimental.trc
DataRate	CameraRate	NumFrames	NumMarkers	Units	OrigDataRate	OrigDataStartFrame	OrigNumFrames
200.000000	200.000000	4	55	mm	200.000000	124	497
Frame#	Time	BL			BR			GLAB			RFHD			LFHD			C7			T6			SPINMOL			SPINM2			SPINM3			T12			BELTOL			BELT2			BELT3			SACROL			SACR2			SACR3			LTHOL			LTH2			LTH3			LSHAOL			LSHA2			LSHA3			LHEE			LTOE			LM5			RTHOL			RTH2			RTH3			RSHAOL			RSHA2			RSHA3			RHEE			RTOE			RM5			STRN			XIPH			LACR			LUAOL			LUA2			LUA3			LLAOL			LLA2			LLA3			LWRR			LWRU			RACR			RUAOL			RUA2			RUA3			RLAOL			RLA2			RLA3			RWRR			RWRU			
		X1	Y1	Z1	X2	Y2	Z2	X3	Y3	Z3	X4	Y4	Z4	X5	Y5	Z5	X6	Y6	Z6	X7	Y7	Z7	X8	Y8	Z8	X9	Y9	Z9	X10	Y10	Z10	X11	Y11	Z11	X12	Y12	Z12	X13	Y13	Z13	X14	Y14	Z14	X15	Y15	Z15	X16	Y16	Z16	X17	Y17	Z17	X18	Y18	Z18	X19	Y19	Z19	X20	Y20	Z20	X21	Y21	Z21	X22	Y22	Z22	X23	Y23	Z23	X24	Y24	Z24	X25	Y25	Z25	X26	Y26	Z26	X27	Y27	Z27	X28	Y28	Z28	X29	Y29	Z29	X30	Y30	Z30	X31	Y31	Z31	X32	Y32	Z32	X33	Y33	Z33	X34	Y34	Z34	X35	Y35	Z35	X36	Y36	Z36	X37	Y37	Z37	X38	Y38	Z38	X39	Y39	Z39	X40	Y40	Z40	X41	Y41	Z41	X42	Y42	Z42	X43	Y43	Z43	X44	Y44	Z44	X45	Y45	Z45	X46	Y46	Z46	X47	Y47	Z47	X48	Y48	Z48	X49	Y49	Z49	X50	Y50	Z50	X51	Y51	Z51	X52	Y52	Z52	X53	Y53	Z53	X54	Y54	Z54	X55	Y55	Z55	

125	0.62	193.8522796630859	1170.387573242188	-2235.8828125	235.4910583496094	1216.07177734375	-215.9916687011718	506.0300598144531	1379.498657226562	-1188.389526367188	453.5458374023438	1402.113525390625	-1125.968994140625	462.4869384765625	1401.379028320312	-1261.556030273438	268.5411682128906	1257.7041015625	-1199.25341796875	152.2099456787109	1130.059448242188	-1204.854370117188	130.9811859130859	1103.402954101562	-1224.368041992188	122.7471694946289	1096.75830078125	-1175.1201171875	101.7933197021484	1045.356323242188	-1211.171264648438	78.64757537841797	985.5119628906251	-1211.087890625	43.94499588012695	963.2912597656251	-1226.4990234375	43.12123107910156	959.8864746093751	-1176.051513671875	13.62497520446777	908.2121582031251	-1205.416137695312	-24.7126293182373	813.8789672851564	-1231.499389648438	-23.85390663146973	810.4313964843751	-1179.860229492188	-38.62426376342773	752.7269287109376	-1208.763671875	136.4109802246094	573.6625366210939	-1483.79443359375	146.4331970214844	495.4391479492189	-1474.402587890625	174.6015930175781	528.3628540039064	-1500.067626953125	207.6153564453125	316.8999633789064	-1581.948974609375	153.9105987548828	265.5443725585939	-1553.10400390625	198.2740478515625	255.8761291503907	-1575.570434570312	110.8862075805664	69.56812286376962	-1466.283935546875	314.9612121582031	50.17369842529306	-1538.535522460938	238.9330596923828	26.41894912719737	-1619.442626953125	113.7494049072266	568.9748535156251	-937.8341674804688	175.1585235595703	572.4752807617188	-886.7291259765625	157.9599609375	533.1430053710938	-911.699462890625	181.0766143798828	332.2628479003907	-837.631591796875	191.9103546142578	254.9564361572266	-827.97216796875	156.4810028076172	277.3419799804688	-854.744140625	90.36238861083984	64.48223876953131	-966.190673828125	280.4104919433594	47.36167144775396	-870.34326171875	191.5595855712891	38.1588859558106	-799.09130859375	391.2420654296875	1103.800415039062	-1203.937622070312	356.56640625	958.9100952148439	-1200.5361328125	307.0929870605469	1209.905883789062	-1370.104736328125	191.464111328125	1093.812255859375	-1460.98046875	141.9003143310547	1051.9365234375	-1448.837768554688	172.7342681884766	1036.296630859375	-1486.104125976562	142.5232543945312	969.9537963867189	-1552.71923828125	212.5188140869141	964.2566528320314	-1589.637451171875	184.9623565673828	1005.439392089844	-1579.424438476562	242.9303588867188	1083.43359375	-1620.735717773438	255.6801605224609	1112.41748046875	-1548.717041015625	322.4009704589844	1204.637329101562	-1037.901245117188	209.4891815185547	1093.6064453125	-948.8663940429686	185.2343444824219	1038.668823242188	-921.6349487304686	161.2816009521484	1052.758422851562	-965.8253173828124	179.5307922363281	971.724365234375	-838.5074462890624	182.6054229736328	1050.640258789062	-827.5310668945311	218.4893646240234	1015.424987792969	-817.8207397460936	253.9873504638672	1101.097900390625	-798.5939331054686	278.1919250488281	1131.785766601562	-868.4176025390624	
126	0.625	194.5746459960938	1166.580322265625	-2235.943603515625	236.1741485595703	1212.548706054688	-216.0499725341796	506.9266662597656	1375.425659179688	-1188.435791015625	454.4298706054688	1398.0771484375	-1126.03515625	463.4192199707031	1397.282958984375	-1261.630004882812	269.3761901855469	1253.940795898438	-1199.2939453125	152.7159576416016	1126.702270507812	-1204.897705078125	131.4590911865234	1100.122924804688	-1224.411010742188	123.2019500732422	1093.5146484375	-1175.128662109375	102.047492980957	1042.19287109375	-1211.21484375	78.70276641845703	982.4456176757814	-1211.138793945312	43.92966461181641	960.3672485351564	-1226.539306640625	43.03517913818359	956.9659423828126	-1176.077270507812	13.44797706604004	905.3916625976564	-1205.46240234375	-25.27058410644531	810.9857177734376	-1231.579956054688	-24.45021629333496	807.5366210937501	-1179.940673828125	-39.25416946411133	749.8451538085939	-1208.852905273438	136.7752075195312	571.7247314453126	-1484.35595703125	147.2382049560547	493.5316162109376	-1475.326416015625	175.2647247314453	526.7351074218751	-1500.810180664062	208.4809875488281	316.5125732421876	-1582.626831054688	154.6062927246094	265.4151916503907	-1553.645263671875	198.936279296875	255.5409240722657	-1576.101196289062	110.9314346313477	69.59974670410165	-1466.247802734375	314.9888305664062	50.15960693359384	-1538.528930664062	238.9277038574219	26.41508293151865	-1619.443725585938	113.8243560791016	566.8828125000001	-937.2061157226562	175.2130432128906	571.0148315429688	-886.1295166015625	158.2715454101562	531.4572143554688	-910.9308471679688	181.8183441162109	331.8443908691407	-836.8826293945312	192.4338531494141	254.4729461669922	-827.4080200195312	157.0742340087891	277.0492248535157	-854.133544921875	90.43567657470703	64.5089950561524	-966.2136840820312	280.4220886230469	47.34127426147467	-870.3490600585938	191.5553283691406	38.15931320190435	-799.0833740234375	391.7028198242188	1099.718505859375	-1203.943237304688	356.6572265625	954.8821411132814	-1200.524780273438	307.8678588867188	1205.971557617188	-1370.158325195312	191.9151916503906	1090.159423828125	-1461.033203125	142.2234802246094	1048.426879882812	-1448.878784179688	173.041015625	1032.676879882812	-1486.116577148438	142.6356353759766	966.4112548828126	-1552.72216796875	212.6090850830078	960.4960937500001	-1589.65234375	185.1741790771484	1001.771911621094	-1579.43896484375	243.3382568359375	1079.595581054688	-1620.787963867188	256.2226867675781	1108.539428710938	-1548.769897460938	323.1383056640625	1200.767333984375	-1037.928955078125	210.0027770996094	1089.986083984375	-948.8484497070311	185.5943756103516	1035.117431640625	-921.6013793945311	161.6606750488281	1049.266479492188	-965.7927856445311	179.7259979248047	968.2007446289062	-838.4919433593749	182.9921569824219	1047.120849609375	-827.5330810546874	218.7902679443359	1011.816223144531	-817.8212280273436	254.4864501953125	1097.412841796875	-798.6151123046874	278.826171875	1128.008666992188	-868.4379882812499	
127	0.63	195.2959136962891	1162.757690429688	-2236.00634765625	236.8549346923828	1209.009155273438	-216.1108245849609	507.8260498046875	1371.34228515625	-1188.48828125	455.3192138671875	1394.033935546875	-1126.104858398438	464.3499450683594	1393.173950195312	-1261.704833984375	270.2104797363281	1250.164794921875	-1199.329956054688	153.2250518798828	1123.335693359375	-1204.93408203125	131.9392395019531	1096.832275390625	-1224.448852539062	123.6593246459961	1090.259399414062	-1175.132568359375	102.3058319091797	1039.0185546875	-1211.251708984375	78.76389312744141	979.3712158203126	-1211.181640625	43.91984558105469	957.4418945312501	-1226.565185546875	42.96015930175781	954.0397338867189	-1176.093627929688	13.28202247619629	902.5676269531251	-1205.4970703125	-25.81660270690918	808.0929565429689	-1231.65283203125	-25.04183197021484	804.6388549804689	-1180.014282226562	-39.87265396118164	746.9626464843751	-1208.939819335938	137.1356506347656	569.7945556640626	-1484.908325195312	148.0237426757812	491.6359252929689	-1476.239624023438	175.9153289794922	525.1106567382814	-1501.537109375	209.3347778320312	316.1291503906251	-1583.287841796875	155.2910766601562	265.2868652343751	-1554.174560546875	199.5868225097656	255.2101440429688	-1576.6201171875	110.9767761230469	69.63338470458993	-1466.209716796875	315.0170288085938	50.14756393432626	-1538.521362304688	238.9226684570312	26.4110050201417	-1619.444946289062	113.8888244628906	564.7708129882814	-936.6066284179688	175.2357940673828	569.5408325195312	-885.5440673828125	158.5658721923828	529.7594604492188	-910.1815795898438	182.5342407226562	331.4288330078126	-836.1466064453125	192.9350128173828	253.9960479736329	-826.8527221679688	157.6465148925781	276.7590332031251	-853.5343017578125	90.50454711914062	64.53559112548834	-966.2353515625	280.4330444335938	47.32159042358404	-870.3519287109375	191.5502471923828	38.158618927002	-799.0748291015625	392.1644592285156	1095.627197265625	-1203.944091796875	356.75390625	950.8472290039064	-1200.509765625	308.6421203613281	1202.024780273438	-1370.20751953125	192.3651885986328	1086.494384765625	-1461.08154296875	142.5505828857422	1044.905151367188	-1448.913818359375	173.3509368896484	1029.044189453125	-1486.123901367188	142.7506256103516	962.8552246093751	-1552.722412109375	212.7019653320312	956.7244873046876	-1589.663452148438	185.388671875	998.0910034179689	-1579.450561523438	243.7466278076172	1075.743408203125	-1620.839477539062	256.7635498046875	1104.649047851562	-1548.821533203125	323.8707580566406	1196.886962890625	-1037.958374023438	210.5201263427734	1086.352661132812	-948.8269653320311	185.957763671875	1031.55224609375	-921.5667724609374	162.0436859130859	1045.76171875	-965.7586669921874	179.9244384765625	964.6610717773438	-838.4792480468749	183.3796234130859	1043.586059570312	-827.5369262695311	219.0933532714844	1008.191528320312	-817.8235473632811	254.9849548339844	1093.71240234375	-798.6373901367186	279.4676513671875	1124.215942382812	-868.4595947265624	
128	0.635	196.0159759521484	1158.920776367188	-2236.070556640625	237.5336151123047	1205.45458984375	-216.1741333007812	508.7283020019531	1367.249877929688	-1188.54638671875	456.2141723632812	1389.985107421875	-1126.177978515625	465.2789306640625	1389.053344726562	-1261.780395507812	271.0435791015625	1246.378051757812	-1199.359741210938	153.7366333007812	1119.961303710938	-1204.963134765625	132.4205169677734	1093.532958984375	-1224.48095703125	124.1168594360352	1086.993286132812	-1175.133178710938	102.5666961669922	1035.835327148438	-1211.2822265625	78.8302001953125	976.2905883789064	-1211.217407226562	43.91354751586914	954.5164184570314	-1226.578857421875	42.89603042602539	951.1092529296876	-1176.102416992188	13.12894916534424	899.7407836914064	-1205.518920898438	-26.35067749023438	805.2015380859376	-1231.719482421875	-25.62727737426758	801.7384033203126	-1180.082763671875	-40.47995758056641	744.0803222656251	-1209.026611328125	137.4897766113281	567.8701782226564	-1485.451538085938	148.7908782958984	489.749481201172	-1477.142700195312	176.5528717041016	523.4880371093751	-1502.24951171875	210.1789245605469	315.748260498047	-1583.933349609375	155.9666900634766	265.1581115722657	-1554.69384765625	200.2278900146484	254.8823699951173	-1577.127685546875	111.0221710205078	69.66836547851571	-1466.169799804688	315.0457763671875	50.13664245605478	-1538.512573242188	238.9180297851562	26.4072093963624	-1619.445922851562	113.9443130493164	562.6390380859376	-936.036865234375	175.2281799316406	568.0537719726562	-884.9733276367188	158.8441925048828	528.0502319335938	-909.4517822265625	183.2241058349609	331.0169677734376	-835.4235229492188	193.4131622314453	253.5265350341797	-826.3053588867188	158.1977996826172	276.4719238281251	-852.946533203125	90.56831359863281	64.56211090087896	-966.25537109375	280.4431457519531	47.3030624389649	-870.3511962890625	191.544189453125	38.15670776367192	-799.0654907226562	392.6262512207031	1091.528076171875	-1203.938720703125	356.8562622070312	946.8076171875001	-1200.4892578125	309.4157409667969	1198.06787109375	-1370.251586914062	192.8171844482422	1082.818115234375	-1461.124755859375	142.8831481933594	1041.373046875	-1448.943969726562	173.6651611328125	1025.400024414062	-1486.127197265625	142.8702087402344	959.2868652343751	-1552.720336914062	212.8001098632812	952.9433593750001	-1589.67041015625	185.6077575683594	994.3981933593751	-1579.459106445312	244.1575164794922	1071.879028320312	-1620.888916015625	257.3035278320312	1100.748901367188	-1548.871337890625	324.5976257324219	1192.997680664062	-1037.987548828125	211.0400543212891	1082.707763671875	-948.8013305664061	186.3233337402344	1027.973754882812	-921.5301513671874	162.4301452636719	1042.2451171875	-965.7223510742186	180.1260223388672	961.106689453125	-838.4682617187499	183.7674255371094	1040.036499023438	-827.5418090820311	219.3984985351562	1004.552307128906	-817.8266601562499	255.4822235107422	1089.998168945312	-798.6600952148436	280.11328125	1120.4091796875	-868.4815673828124	
